<svg id="ground" xmlns="http://www.w3.org/2000/svg" viewBox="0 0 256 256"><path d="M140.08,183.54,130,177c8.18-7.42,15.88-14.52,23.71-21.46s7.84-6.85-1-12c-6.94-4-13.91-8-21.54-12.42,5.27-3,9.7-5.67,14.19-8.15a3.45,3.45,0,0,1,2.73-.4c8.5,4.75,16.92,9.62,25.85,14.74l-8.1,5.09c7.35,4.24,13.93,8.14,20.63,11.82a5.06,5.06,0,0,0,4.1.28c6.85-3.73,13.56-7.72,20.91-12l-11.1-7a25.05,25.05,0,0,0,4-2.33c8-7.1,15.83-14.3,23.78-21.42,4-3.56,4-4.15-.69-7.11-.84-.53-1.66-1.1-2.53-1.6-29-16.69-58.09-33.32-87.05-50.14-3-1.77-4.88-1.45-7.35.85-10.86,10.1-21.89,20-32.88,30C91.36,89.5,91.33,89.5,98.8,94c5.59,3.34,11.2,6.65,17.16,10.18l-10.25,6.25,21.86,12.75-.59,1.06-20.81-11.85L104.72,116c-12.94-7.45-25.54-14.59-38-22-2.9-1.71-4.85-1.7-7.42.68-11.51,10.63-23.23,21-34.82,31.57-4.3,3.91-4.27,4.5.73,7.51,6.24,3.74,12.58,7.3,19.41,11.26L34.3,151.4c7.43,4.29,14.25,8.37,21.24,12.12,1.11.59,3.15,0,4.51-.54,2.73-1.19,5.3-2.78,7.93-4.2-1.64,2.2-4,3.21-5.89,4.72-3.39,2.66-6.25,2.34-9.81,0-5.64-3.73-11.69-6.82-17.72-10.26-1.3,4.36-.33,7.28,3.66,9.23A48,48,0,0,1,47.68,168c6.63,5.43,13,5.58,19.34-.12,5.68-5.09,11.12-4.72,17.22-.4,5.58,3.95,11.72,7.1,18.06,10.87l-7.68,4.93c7.87,4.74,15.36,8.26,22.86,12.78m-90.6-66.25L63.17,97l43.51,25.1L70.4,154.87Zm127.27,19.52-36.3,32.8-43.52-25c9.27-8.41,18-16.47,26.94-24.38,3.17-2.83,6.46-7.09,10-7.44,3.38-.34,7.2,3.54,10.8,5.61ZM141.79,113.9,98.32,88.84,134.57,56l43.57,25Zm47.46,27.29-43.45-25c5.68-5.19,11-10.09,16.37-14.94C168,96,173.73,90.7,179.66,85.61c1-.86,3.22-1.63,4.13-1.12,13.76,7.69,27.4,15.6,41.78,23.88Z"/><path d="M136.55,194.49a64.4,64.4,0,0,0-12.08,7c-5,3.84-9.28,3.43-14.17-.13a76.76,76.76,0,0,0-12.1-7c-3.92-1.87-4.49-4.72-3.88-8.66a.48.48,0,0,1,.71-.34c5.89,3.38,11.4,6.62,17,9.69a34.5,34.5,0,0,0,5.3,2,.51.51,0,0,0,.3,0c1.08-.37,2.18-.72,3.26-1.08l.09,0,18.43-10.24a.49.49,0,0,1,.7.29C141.22,190,140.57,192.62,136.55,194.49Z"/><path d="M207.78,153.65a38.11,38.11,0,0,0-9.05,5.22c-7,5.94-13.49,5.11-20.27-.31-2.57-2.05-5.71-3.36-8.55-5.09-4.65-2.82-4.63-2.85-4-9.38,6.43,3.68,12.45,6.87,18.18,10.5,3.34,2.11,6,2.28,9.39,0,5.67-3.69,11.72-6.78,17.74-10.19C212.83,148.92,211.94,151.77,207.78,153.65Z"/><path d="M123.1,86.55c-7.28,7.39-3.72,8.17-17-.35C113.41,78.22,110.63,78.88,123.1,86.55Z"/><path d="M133.34,77.47c-6.67,7.3-6.67,7.3-17-.45C123.49,69.2,120.67,69.44,133.34,77.47Z"/><path d="M146.55,85.17c-5.41,7-5.41,7-16.7-.14C136.12,76.85,135.18,77.58,146.55,85.17Z"/><path d="M160.58,93.15l-6.59,6-11-6.42C150.54,84.85,147.91,85,160.58,93.15Z"/><path d="M149.89,101.9c-5.11,7.55-7.62,7.5-16.86-.37C140.66,94.32,137,94.08,149.89,101.9Z"/><path d="M143.52,68.34c-7.2,6.84-3.81,8.15-17.08-.5C133.45,60,131,60.36,143.52,68.34Z"/><path d="M171,83.7,164.23,90c-3.75-2.15-7.33-4.19-11.55-6.59l6.95-6.29Z"/><path d="M157,75.66c-7.35,8.14-4.55,7.71-17.57-.29,2.39-2.16,4.47-4,6.76-6.08Z"/><path d="M136.54,94.51c-7.32,7.26-4.06,7.59-17.06-.5C125.78,86.61,127.11,86.67,136.54,94.51Z"/><path d="M197.34,129.24c-4.86,7.2-6.83,7.2-17-.25C187.79,121.47,184.56,121.22,197.34,129.24Z"/><path d="M181.15,104.89c-2.46,2.16-4.52,4-6.8,6l-10.66-6.2C168.71,97.13,169.81,97.14,181.15,104.89Z"/><path d="M194.14,112.45c-6,7.37-7.09,7.35-16.89-.41C184.33,104.69,181.16,104.13,194.14,112.45Z"/><path d="M191.51,95.55c-2.47,2.16-4.55,4-6.95,6.1l-11.28-6.47L180,88.8Z"/><path d="M207.79,120.31c-7.79,7.48-4.06,7.46-16.86-.09C195.1,112.65,197.05,112.66,207.79,120.31Z"/><path d="M204.33,103.26c-6.19,7.28-7,7.26-16.92-.41C194.7,95.19,191.74,95.31,204.33,103.26Z"/><path d="M171.17,114l-7,6.14-10.8-6.34C159,106.67,159,106.67,171.17,114Z"/><path d="M218.07,111c-7.47,7-4,8.29-17.16-.39C208.22,102.44,205.52,103.54,218.07,111Z"/><path d="M184,121.22c-5,7.55-5.73,7.54-17.55-.13l6.85-6Z"/><path d="M75.14,126.19c-6.54,7.4-4.53,7.65-16.88-.54C64.36,118.47,66,118.52,75.14,126.19Z"/><path d="M62.2,118.22c-7,7.35-7.2,7.34-17.62-.46l6.28-6c1.9,1.05,3.73,2.05,5.54,3.08S60.07,117,62.2,118.22Z"/><path d="M51.57,127.11c-6.68,8.43-5,7.67-17.28-.19l6.5-6Z"/><path d="M65.13,135.39c-7,7.49-4.52,7.77-16.91-.54C55.23,127.39,52.53,127.19,65.13,135.39Z"/><path d="M72.07,109.25c-6.9,7.45-6.95,7.45-17.09-.54C62.11,101.31,58.89,100.84,72.07,109.25Z"/><path d="M99.05,124.56c-7.41,7.87-4.27,7.79-17.3-.29C89.37,116.79,85.84,116.67,99.05,124.56Z"/><path d="M85.57,116.77c-7.33,7.88-4.37,7.82-17.23-.27C74.14,109.75,74.14,109.75,85.57,116.77Z"/><path d="M89,134.23l-6.45,5.9c-3.51-2-6.65-3.78-9.78-5.59a8.91,8.91,0,0,1-1.13-.92C78.37,126.48,76,125.21,89,134.23Z"/><path d="M78.56,143.15c-6.94,7.11-4,8.11-16.88-.52C68.25,135.05,68.37,135.05,78.56,143.15Z"/><path d="M132.76,144.08c-5,7.27-6.47,7.26-17-.37C123.36,136.43,119.67,135.82,132.76,144.08Z"/><path d="M123.11,153.68l-6.74,6-10.77-6.49C112.75,145.47,110,145.14,123.11,153.68Z"/><path d="M126.19,170.1c-6.81,7.8-4.84,7.9-17.6-.41l6.8-5.9Z"/><path d="M146.83,152.21l-6.59,6c-3.49-2-6.67-3.78-9.82-5.62a5.62,5.62,0,0,1-1-1.06C136.6,144,134.05,144.21,146.83,152.21Z"/><path d="M109.26,145.63c-7.18,7.41-3.8,8.11-17-.34C99.49,137.47,96.84,137.88,109.26,145.63Z"/><path d="M113.24,162.63l-6.94,6.21-11.36-6.59,6.87-6.27Z"/><path d="M99.2,154.76c-7.12,7.32-3.83,8.25-17.13-.25C89.65,146.41,86.57,147.25,99.2,154.76Z"/><path d="M136.17,161.21c-7.17,7.85-4.44,7.36-16.7-.21C126,152.8,124.32,153.52,136.17,161.21Z"/><path d="M119.33,136c-6.44,8-4.5,8.48-17.17-.37l6.48-5.79Z"/></svg>