<svg xmlns="http://www.w3.org/2000/svg" viewBox="0 0 511.999 511.999" xmlns:v="https://vecta.io/nano"><path d="M457.398 285.98c-11.402-26.543-28.457-54.162-50.7-82.088-2.512-3.156-7.1-3.68-10.265-1.165a7.31 7.31 0 0 0-1.166 10.266c21.423 26.9 37.806 53.406 48.695 78.755 13.2 30.705 18.345 59.883 15.32 86.724-3.128 27.765-15.412 51.218-36.513 69.7-17.224 15.095-40.362 27.04-68.77 35.508-49.14 14.645-97.347 13.686-97.83 13.674-.117-.002-.236-.002-.353 0-.486.005-48.695.97-97.832-13.674-28.4-8.467-51.547-20.413-68.77-35.508-21.1-18.5-33.384-41.944-36.512-69.7-4.83-42.877 10.942-90.823 46.878-142.505 27.167-39.07 60.236-71.747 81.256-90.8H331.16c9.45 8.557 21.6 20.1 34.472 33.736 2.77 2.936 7.394 3.067 10.328.298a7.31 7.31 0 0 0 .298-10.327 633.29 633.29 0 0 0-28.331-28.139c5.638-4.152 9.305-10.833 9.305-18.356 0-12.565-10.223-22.788-22.788-22.788h-2.087c8.22-12.034 18.916-28.607 26.823-44.133 10.905-21.414 14.097-35.734 10.044-45.067-2.406-5.54-7.36-9.126-13.947-10.098-9.777-1.445-22.678 2.48-39 7.452-18.44 5.6-39.34 11.972-60.265 11.972s-41.825-6.36-60.265-11.972c-16.33-4.97-29.233-8.896-39-7.452-6.588.972-11.54 4.558-13.946 10.098-4.053 9.333-.86 23.653 10.044 45.067 7.908 15.527 18.604 32.1 26.823 44.133h-2.087c-12.565 0-22.788 10.223-22.788 22.788 0 7.52 3.663 14.2 9.297 18.35-50.6 47.194-136.744 142.92-125.877 239.368 6.35 56.36 46.446 97.054 115.955 117.68 50.296 14.924 98.042 14.263 101.855 14.185l2.977.026c11.8 0 54.346-.997 98.877-14.2 69.5-20.625 109.605-61.318 115.956-117.68 3.3-29.393-2.2-61.062-16.415-94.127zM156.182 16.22c.197-.455.496-1.142 2.678-1.464 6.533-.96 19.206 2.892 32.623 6.975 18.454 5.616 41.42 12.605 64.52 12.605s46.065-7 64.52-12.605c13.417-4.083 26.095-7.934 32.622-6.975 2.182.322 2.48 1 2.678 1.464.65 1.493 5.108 16.37-37.457 77.946a33.86 33.86 0 0 0-3.059 5.434H196.7c-.837-1.872-1.854-3.692-3.06-5.434-42.566-61.575-38.106-76.452-37.46-77.946zm21.38 98h156.882a8.19 8.19 0 0 1 8.177 8.177 8.19 8.19 0 0 1-8.177 8.177H177.562a8.19 8.19 0 0 1-8.177-8.177 8.19 8.19 0 0 1 8.177-8.177zm162.45 119.72c-22.44-22.44-52.276-34.798-84-34.798s-61.57 12.358-84 34.798c-16.4 16.4-27.562 37.017-32.282 59.625a7.31 7.31 0 0 0 5.658 8.644c3.948.824 7.82-1.708 8.644-5.66 4.137-19.818 13.927-37.896 28.3-52.28 40.627-40.625 106.73-40.626 147.356 0s40.626 106.73 0 147.356-106.73 40.628-147.354.002c-14.036-14.036-23.725-31.645-28.018-50.922-.877-3.938-4.78-6.422-8.72-5.543a7.31 7.31 0 0 0-5.543 8.719c4.898 22 15.945 42.074 31.948 58.077 23.16 23.16 53.586 34.742 84 34.742s60.848-11.58 84-34.742c46.322-46.323 46.322-121.696 0-168.02zm-76.218 78.1l-.654-.24v-40.655l1.07.076c8.412.6 13.595 3.194 17.38 5.087 2.23 1.116 4 1.997 5.535 1.997 4.877 0 7.428-6.457 7.428-9.918 0-4.708-5.524-7.672-10.16-9.33-5.464-1.955-13.047-3.25-20.283-3.462l-.97-.028v-6.143c0-1.687-2.395-3.406-4.746-3.406-2.813 0-4.555 1.768-4.555 3.406v6.455l-.896.094c-10.673 1.124-35.498 6.747-35.498 34.633 0 23.897 18.982 30.646 35.73 36.6l.665.237v46.8l-1.078-.084c-12.557-.984-19.277-6.7-24.183-10.875-2.667-2.27-4.774-4.062-6.77-4.062-4.023 0-7.8 5.587-7.8 9.918 0 8.553 15.137 21.22 38.857 21.603l.984.016v6.92c0 1.637 1.742 3.405 4.555 3.405 2.35 0 4.746-1.718 4.746-3.404v-7.383l.862-.12c21.606-3 34-17.022 34-38.468.001-24.996-16.897-33.303-34.207-39.67zm-8.805-3.13l-1.353-.5c-10.414-3.93-19.035-8.125-19.035-19.707 0-9.6 6.66-15.507 19.264-17.082l1.124-.14v37.44zm8.184 64.853l-1.182.22v-43.136l1.394.598c9.07 3.887 17.463 9.287 17.463 22.372 0 10.752-6.278 17.836-17.675 19.947z"/></svg>