<svg xmlns="http://www.w3.org/2000/svg" viewBox="0 0 256 256"><g id="roof"><path d="M195.4,183.4c-6.22,0-13.49.31-20.71-.18-2.16-.16-4.46-2.24-6.19-3.94q-39.1-38.94-78.1-78c-1.64-1.64-3.36-3.2-6.71-6.38-1.46,2.35-2.39,4.7-4,6.35-25.49,25.63-51.17,51.08-76.55,76.81-4,4-7.94,5.87-13.52,5.44-5.25-.4-10.55-.09-15.59-.09C11.31,146.12,48.36,109.07,84.73,72.69Z"/><path d="M282,183.42c-4.09,0-9.08.49-13.88-.19-2.62-.37-5.39-2.31-7.36-4.27q-41.89-41.64-83.57-83.5a65.17,65.17,0,0,1-4.7-6.06l-26.56,27.39c-4.05-3.9-7.09-6.83-9.71-9.38l34.83-35Z"/><path d="M248.85,105v31.74c-10.38-10.06-20-19.74-29.57-29.4.74-.78,1.48-1.57,2.23-2.34Z"/><rect x="90.3" y="128.12" width="13.77" height="24.85"/><rect x="90.31" y="159.07" width="13.73" height="23.81"/><rect x="70.48" y="128.15" width="13.75" height="25.01"/><rect x="70.67" y="159.11" width="13.55" height="23.95"/><rect x="180.18" y="125.88" width="10.36" height="19.68"/><path d="M175.13,126v19.39c-7.56.17-13.14-6.3-10.4-19.39Z"/><path d="M190.48,150.21v15.5l-11.83-14.12c.49-.46,1-.93,1.48-1.38Z"/></g></svg>