<svg xmlns="http://www.w3.org/2000/svg" height="512" width="512" xmlns:v="https://vecta.io/nano"><path d="M497 181h-17V76c0-8.284-6.716-15-15-15s-15 6.716-15 15v105h-30v-75c0-8.284-6.716-15-15-15s-15 6.716-15 15v75h-30v-45c0-8.284-6.716-15-15-15s-15 6.716-15 15v45h-15c-8.284 0-15 6.716-15 15s6.716 15 15 15h182c8.284 0 15-6.716 15-15s-6.716-15-15-15zm-32 60H270V46c0-8.284-6.716-15-15-15-92.013 0-173.907 55.575-208.287 139.76l-14.715-4.905c-7.853-2.618-16.354 1.628-18.974 9.5C4.382 201.28 0 228.417 0 256c0 90.108 47.014 170.658 119.82 216.26 7 4.4 16.28 2.28 20.682-4.762l8.215-13.143C181.276 471.824 217.718 481 255 481c124.35 0 225-100.633 225-225 0-8.284-6.716-15-15-15zM240 61.57V235.2L75.24 180.27C103.545 112.93 167.1 67.13 240 61.57zM123.28 438.45C64.6 396.14 30 328.994 30 256c0-19.293 2.425-38.33 7.222-56.78l194.96 64.987zM255 451c-31.647 0-62.585-7.625-90.34-22.152L263.314 271H449.43C441.744 371.542 357.477 451 255 451z"/></svg>