<svg xmlns="http://www.w3.org/2000/svg" viewBox="0 0 512 512" xmlns:v="https://vecta.io/nano"><path d="M256 317a15.02 15.02 0 0 1-15-15c0-6.042 3.595-11.468 9.16-13.825 6.717-2.844 14.755-.417 22.06 6.66 5.95 5.764 15.446 5.614 21.2-.335s5.614-15.446-.335-21.2c-6.772-6.56-14.3-11.198-22.093-13.815V242c0-8.284-6.716-15-15-15s-15 6.716-15 15v17.57a46.57 46.57 0 0 0-2.54.979C221.78 267.615 211 283.885 211 302c0 24.813 20.187 45 45 45a15.02 15.02 0 0 1 15 15c0 6.286-3.965 11.954-9.866 14.103-7.705 2.805-16.674-1-24.606-10.445-5.328-6.344-14.8-7.167-21.133-1.84s-7.167 14.8-1.84 21.133c8.1 9.655 17.548 16.276 27.445 19.608V422c0 8.284 6.716 15 15 15s15-6.716 15-15v-17.573l.4-.136c17.705-6.448 29.6-23.444 29.6-42.29 0-24.813-20.187-45-45-45zm138.92-91.74c-17.828-21.933-38.208-39.407-60.58-51.973a45.27 45.27 0 0 0 8.422-15.083c7.326-22.3-3.375-48.8-30.688-57.442l38.3-66.765c4.83-8.426.5-19.158-8.824-21.866C313.854 4.08 285.076 0 256 0s-57.854 4.08-85.538 12.13c-9.326 2.7-13.65 13.45-8.824 21.866l38.3 66.766c-27.205 8.6-38.04 35.05-30.684 57.453a45.04 45.04 0 0 0 8.426 15.067c-22.375 12.566-42.757 30.042-60.587 51.977C81.44 269.106 61 324.413 61 377c0 109.1 87.047 135 195 135 108.03 0 195-25.953 195-135 0-52.587-20.44-107.894-56.08-151.74zM197.496 36.218C216.633 32.087 236.238 30 256 30s39.367 2.087 58.504 6.218L281.47 93.82a183.99 183.99 0 0 0-50.941.001l-33.034-57.603zm9.8 93.678c25.815-8.468 52.823-10.073 79.08-4.824l.094.018c6.12 1.228 12.2 2.826 18.213 4.8 7.86 2.6 12.157 11.094 9.58 18.94a14.95 14.95 0 0 1-12.635 10.23c-14.956-4.683-30.2-7.06-45.628-7.06-15.386 0-30.6 2.368-45.538 7.032-5.907-.608-10.864-4.55-12.72-10.188-2.58-7.86 1.715-16.365 9.555-18.948zM256 482.2c-117.196 0-165-30.62-165-105.2 0-45.142 18.453-94.793 49.36-132.818C172.955 204.083 214.023 182 256 182c46.206 0 86.62 26.482 115.64 62.182C402.547 282.207 421 331.858 421 377c0 74.58-47.804 105.2-165 105.2z"/></svg>